<svg xmlns="http://www.w3.org/2000/svg" version="1.1" xmlns:xlink="http://www.w3.org/1999/xlink" xmlns:svgjs="http://svgjs.dev/svgjs" width="1500" height="1500" viewBox="0 0 1500 1500"><rect width="1500" height="1500" fill="#ffffff"></rect><g transform="matrix(0.6666666666666666,0,0,0.6666666666666666,249.39393939393938,633.2113092014126)"><svg viewBox="0 0 396 93" data-background-color="#ffffff" preserveAspectRatio="xMidYMid meet" height="352" width="1500" xmlns="http://www.w3.org/2000/svg" xmlns:xlink="http://www.w3.org/1999/xlink"><g id="tight-bounds" transform="matrix(1,0,0,1,0.2400000000000091,-0.21584554999165562)"><svg viewBox="0 0 395.52 93.4316685559218" height="93.4316685559218" width="395.52"><g><svg viewBox="0 0 595.4366873277103 140.65696606097964" height="93.4316685559218" width="395.52"><g transform="matrix(1,0,0,1,199.91668732771032,7.573563781253682)"><svg viewBox="0 0 395.52 125.50983849847228" height="125.50983849847228" width="395.52"><g id="textblocktransform"><svg viewBox="0 0 395.52 125.50983849847228" height="125.50983849847228" width="395.52" id="textblock"><g><svg viewBox="0 0 395.52 125.50983849847228" height="125.50983849847228" width="395.52"><g transform="matrix(1,0,0,1,0,0)"><svg width="395.52" viewBox="3 -35.01 111.86 35.5" height="125.50983849847228" data-palette-color="#000000"><path d="M13.35-22.14L10.35-22.14Q9.45-22.14 8.65-21.8 7.86-21.46 7.28-20.87 6.69-20.29 6.35-19.49 6.01-18.7 6.01-17.8L6.01-17.8 6.01 0 3 0 3-25 4-25 5.64-22.46Q6.67-23.85 8.22-24.67 9.77-25.49 11.6-25.49L11.6-25.49 13.35-25.49 13.35-22.14ZM34.06 0L33.05 0 31.39-2.54Q30.37-1.15 28.83-0.33 27.29 0.49 25.46 0.49L25.46 0.49 24.7 0.49Q23.19 0.49 21.85-0.09 20.51-0.66 19.5-1.66 18.5-2.66 17.93-4 17.36-5.35 17.36-6.86L17.36-6.86 17.36-25 20.36-25 20.36-6.69Q20.36-5.79 20.7-4.99 21.04-4.2 21.63-3.61 22.21-3.03 23.01-2.69 23.8-2.34 24.7-2.34L24.7-2.34 26.71-2.34Q27.61-2.34 28.4-2.69 29.2-3.03 29.78-3.61 30.37-4.2 30.71-4.99 31.05-5.79 31.05-6.69L31.05-6.69 31.05-25 34.06-25 34.06 0ZM69.45 0L66.45 0 66.45-18.31Q66.45-19.21 66.11-20.01 65.77-20.8 65.18-21.39 64.59-21.97 63.8-22.31 63.01-22.66 62.1-22.66L62.1-22.66 60.62-22.66Q59.71-22.66 58.92-22.31 58.12-21.97 57.53-21.39 56.93-20.8 56.59-20.01 56.25-19.21 56.25-18.31L56.25-18.31 56.25 0 53.27 0 53.27-18.31Q53.27-19.21 52.92-20.01 52.58-20.8 51.98-21.39 51.39-21.97 50.59-22.31 49.8-22.66 48.9-22.66L48.9-22.66 47.41-22.66Q46.5-22.66 45.71-22.31 44.92-21.97 44.33-21.39 43.75-20.8 43.4-20.01 43.06-19.21 43.06-18.31L43.06-18.31 43.06 0 40.06 0 40.06-25 41.06-25 42.7-22.46Q43.72-23.85 45.27-24.67 46.82-25.49 48.65-25.49L48.65-25.49 48.9-25.49Q51.02-25.49 52.73-24.44 54.44-23.39 55.37-21.66L55.37-21.66Q55.83-22.51 56.51-23.22 57.2-23.93 58.03-24.43 58.86-24.93 59.83-25.21 60.81-25.49 61.86-25.49L61.86-25.49 62.1-25.49Q63.62-25.49 64.96-24.91 66.3-24.34 67.3-23.34 68.31-22.34 68.88-21 69.45-19.65 69.45-18.14L69.45-18.14 69.45 0ZM92.16 0L91.15 0 89.49-2.49Q88.47-1.15 86.93-0.33 85.39 0.49 83.56 0.49L83.56 0.49 82.81 0.49Q81.29 0.49 79.95-0.09 78.61-0.66 77.6-1.66 76.6-2.66 76.03-4 75.46-5.35 75.46-6.86L75.46-6.86 75.46-7.1Q75.46-8.62 76.03-9.96 76.6-11.3 77.6-12.3 78.61-13.31 79.95-13.88 81.29-14.45 82.81-14.45L82.81-14.45 89.15-14.45 89.15-18.31Q89.15-19.21 88.81-20.01 88.47-20.8 87.88-21.39 87.3-21.97 86.5-22.31 85.71-22.66 84.81-22.66L84.81-22.66 83.05-22.66Q82.15-22.66 81.35-22.31 80.56-21.97 79.97-21.39 79.39-20.8 79.05-20.01 78.7-19.21 78.7-18.31L78.7-18.31 78.7-17.41 75.7-17.9 75.7-18.14Q75.7-19.65 76.27-21 76.85-22.34 77.85-23.34 78.85-24.34 80.19-24.91 81.54-25.49 83.05-25.49L83.05-25.49 84.81-25.49Q86.32-25.49 87.66-24.91 89.01-24.34 90.01-23.34 91.01-22.34 91.58-21 92.16-19.65 92.16-18.14L92.16-18.14 92.16 0ZM89.15-6.69L89.15-12.11 82.81-12.11Q81.9-12.11 81.11-11.77 80.31-11.43 79.73-10.83 79.14-10.23 78.8-9.44 78.46-8.64 78.46-7.74L78.46-7.74 78.46-6.69Q78.46-5.79 78.8-4.99 79.14-4.2 79.73-3.61 80.31-3.03 81.11-2.69 81.9-2.34 82.81-2.34L82.81-2.34 84.81-2.34Q85.71-2.34 86.5-2.69 87.3-3.03 87.88-3.61 88.47-4.2 88.81-4.99 89.15-5.79 89.15-6.69L89.15-6.69ZM114.86 0L111.86 0 111.86-18.31Q111.86-19.21 111.51-20.01 111.17-20.8 110.59-21.39 110-21.97 109.21-22.31 108.41-22.66 107.51-22.66L107.51-22.66 105.51-22.66Q104.6-22.66 103.81-22.31 103.02-21.97 102.43-21.39 101.85-20.8 101.5-20.01 101.16-19.21 101.16-18.31L101.16-18.31 101.16 0 98.16 0 98.16-35.01 101.16-35.01 101.16-22.9Q102.19-24.12 103.63-24.8 105.07-25.49 106.75-25.49L106.75-25.49 107.51-25.49Q109.02-25.49 110.37-24.91 111.71-24.34 112.71-23.34 113.71-22.34 114.28-21 114.86-19.65 114.86-18.14L114.86-18.14 114.86 0Z" opacity="1" transform="matrix(1,0,0,1,0,0)" fill="#000000" class="wordmark-text-0" data-fill-palette-color="primary" id="text-0"></path></svg></g></svg></g></svg></g></svg></g><g><svg viewBox="0 0 140.65696606097964 140.65696606097964" height="140.65696606097964" width="140.65696606097964"><g><svg></svg></g><g id="icon-0"><svg viewBox="0 0 140.65696606097964 140.65696606097964" height="140.65696606097964" width="140.65696606097964"><g><path d="M0 70.328c0-38.841 31.487-70.328 70.328-70.328 38.841 0 70.328 31.487 70.329 70.328 0 38.841-31.487 70.328-70.329 70.329-38.841 0-70.328-31.487-70.328-70.329zM70.328 129.338c32.59 0 59.01-26.42 59.01-59.01 0-32.59-26.42-59.01-59.01-59.009-32.59 0-59.01 26.42-59.009 59.009 0 32.59 26.42 59.01 59.009 59.01z" data-fill-palette-color="tertiary" fill="#261f20" stroke="transparent"></path></g><g transform="matrix(1,0,0,1,36.15339593911657,38.963984955016116)"><svg viewBox="0 0 68.3501741827465 62.72899615094742" height="62.72899615094742" width="68.3501741827465"><g><svg version="1.1" xmlns="http://www.w3.org/2000/svg" xmlns:xlink="http://www.w3.org/1999/xlink" x="0" y="0" viewBox="0.14570337834961225 4.1899999999999995 99.99900557195222 91.775" enable-background="new 0.146 4.189 100 91.775" xml:space="preserve" width="68.3501741827465" height="62.72899615094742" class="icon-cg-0" data-fill-palette-color="accent" id="cg-0"><g fill="#261f20" data-fill-palette-color="accent"><path d="M99.511 38.569L50.993 4.606c-0.513-0.359-1.195-0.359-1.708 0L0.779 38.569c-0.323 0.228-0.542 0.573-0.611 0.961-0.068 0.389 0.021 0.789 0.247 1.112l6.606 9.434c0.291 0.415 0.751 0.635 1.222 0.635 0.294 0 0.592-0.086 0.852-0.269l41.051-28.748 41.049 28.748c0.678 0.472 1.604 0.307 2.074-0.366l6.607-9.434c0.225-0.323 0.315-0.724 0.246-1.112C100.055 39.143 99.835 38.797 99.511 38.569z" fill="#261f20" data-fill-palette-color="accent"></path><path d="M87.456 53.667l-36.457-25.53c-0.512-0.358-1.195-0.358-1.707 0L12.641 53.803c-0.398 0.277-0.635 0.733-0.635 1.22v39.454c0 0.82 0.667 1.488 1.49 1.488h25.502c0.822 0 1.489-0.668 1.489-1.488V60.095h19.32v34.382c0 0.82 0.666 1.488 1.489 1.488h25.309c0.823 0 1.486-0.668 1.486-1.488V54.886C88.09 54.4 87.855 53.946 87.456 53.667z" fill="#261f20" data-fill-palette-color="accent"></path><path d="M74.213 15.768l11.411 7.99c0.256 0.178 0.554 0.269 0.854 0.269 0.236 0 0.474-0.056 0.688-0.167 0.49-0.256 0.801-0.766 0.801-1.321V5.678c0-0.822-0.667-1.488-1.489-1.488H75.065c-0.822 0-1.488 0.667-1.488 1.488v8.871C73.576 15.033 73.812 15.489 74.213 15.768z" fill="#261f20" data-fill-palette-color="accent"></path></g></svg></g></svg></g></svg></g></svg></g></svg></g><defs></defs></svg><rect width="395.52" height="93.4316685559218" fill="none" stroke="none" visibility="hidden"></rect></g></svg></g></svg>